<svg xmlns="http://www.w3.org/2000/svg" viewBox="0 0 24 30" x="0px" y="0px"><path d="M5.77,18.23A14.44,14.44,0,0,1,1.8516,5.3986,2.5617,2.5617,0,0,1,3.5648,3.3951l2.84-.9535a1.2653,1.2653,0,0,1,1.6066.8L9.15,6.6826A1.2762,1.2762,0,0,1,8.8393,7.985L6.6409,10.3908s-.8565,2.4429,1.8344,5.1339,5.1339,1.8344,5.1339,1.8344l2.4057-2.1984a1.276,1.276,0,0,1,1.3025-.3107l3.4409,1.1386a1.2654,1.2654,0,0,1,.8,1.6068l-.9534,2.84a2.5618,2.5618,0,0,1-2.0035,1.7132A14.4391,14.4391,0,0,1,5.77,18.23ZM18.375,2.375a.75.75,0,0,0-1.5,0v3.25h-3.25a.75.75,0,0,0,0,1.5h3.25v3.25a.75.75,0,0,0,1.5,0V7.125h3.25a.75.75,0,0,0,0-1.5h-3.25Z"/><text x="0" y="39" fill="#000000" font-size="5px" font-weight="bold" font-family="'Helvetica Neue', Helvetica, Arial-Unicode, Arial, Sans-serif">Created by Royyan Wijaya</text><text x="0" y="44" fill="#000000" font-size="5px" font-weight="bold" font-family="'Helvetica Neue', Helvetica, Arial-Unicode, Arial, Sans-serif">from the Noun Project</text></svg>