


<svg id="Layer_1" data-name="Layer 1" xmlns="http://www.w3.org/2000/svg" viewBox="0 0 512 512"><defs><style>.cls-1{fill:#141f38;}</style></defs><title>shop-outline</title><path class="cls-1" d="M300.8,396.8h89.6a32,32,0,0,0,32-32v-64a32,32,0,0,0-32-32H300.8a32,32,0,0,0-32,32v64A32,32,0,0,0,300.8,396.8Zm-6.4-96a6.41,6.41,0,0,1,6.4-6.4h89.6a6.41,6.41,0,0,1,6.4,6.4v64a6.41,6.41,0,0,1-6.4,6.4H300.8a6.41,6.41,0,0,1-6.4-6.4ZM204.8,384A12.8,12.8,0,0,1,192,396.8H179.2a12.8,12.8,0,0,1,0-25.6H192A12.8,12.8,0,0,1,204.8,384ZM499.2,486.4H473.6V236.33A51.17,51.17,0,0,0,499.2,192V32a32,32,0,0,0-32-32H44.8a32,32,0,0,0-32,32V192a51.17,51.17,0,0,0,25.6,44.33V486.4H12.8a12.8,12.8,0,0,0,0,25.6H499.2a12.8,12.8,0,0,0,0-25.6Zm-281.6,0H115.2V300.8a6.41,6.41,0,0,1,6.4-6.4h89.6a6.41,6.41,0,0,1,6.4,6.4Zm-6.4-217.6H121.6a32,32,0,0,0-32,32V486.4H64V243.2a51,51,0,0,0,38.4-17.35,51.14,51.14,0,0,0,76.8,0,51.14,51.14,0,0,0,76.8,0,51.14,51.14,0,0,0,76.8,0,51.14,51.14,0,0,0,76.8,0A51,51,0,0,0,448,243.2V486.4H243.2V300.8A32,32,0,0,0,211.2,268.8Zm-96-192h51.2v89.6H115.2ZM448,217.6A25.63,25.63,0,0,1,422.4,192h51.2A25.63,25.63,0,0,1,448,217.6ZM192,192h51.2a25.6,25.6,0,0,1-51.2,0Zm76.8,0H320a25.6,25.6,0,0,1-51.2,0Zm76.8,0h51.2a25.6,25.6,0,0,1-51.2,0Zm51.2-25.6H345.6V76.8h51.2Zm-76.8,0H268.8V76.8H320Zm-76.8,0H192V76.8h51.2ZM166.4,192a25.6,25.6,0,0,1-51.2,0ZM64,217.6A25.63,25.63,0,0,1,38.4,192H89.6A25.63,25.63,0,0,1,64,217.6Zm409.6-51.2H422.4V76.8h51.2ZM38.4,32a6.41,6.41,0,0,1,6.4-6.4H467.2a6.41,6.41,0,0,1,6.4,6.4V51.2H38.4Zm0,44.8H89.6v89.6H38.4Z"/></svg>